<svg width="49" height="49" viewBox="0 0 49 49" fill="none" xmlns="http://www.w3.org/2000/svg">
<path d="M24.0775 1C11.3321 1 1 11.3321 1 24.0775C1 36.8228 11.3321 47.155 24.0775 47.155C36.8228 47.155 47.155 36.8228 47.155 24.0775C47.155 11.3321 36.8228 1 24.0775 1ZM24.1675 41.0538C14.7918 41.0538 7.1912 33.4533 7.1912 24.0775C7.1912 14.7017 14.7918 7.10115 24.1675 7.10115C33.5433 7.10115 41.1439 14.7017 41.1439 24.0775C41.1439 33.4533 33.5433 41.0538 24.1675 41.0538Z" stroke="#365094" stroke-width="2"/>
<path d="M29.0152 22.4891C28.4494 22.0895 27.842 21.7876 27.1935 21.5839C26.5447 21.3802 25.9489 21.2257 25.4057 21.12C25.3 21.1051 25.0585 21.0634 24.6816 20.9955C24.3043 20.9276 23.9121 20.8335 23.5048 20.7126C23.0975 20.592 22.7354 20.4488 22.4186 20.2826C22.1018 20.1168 21.9434 19.9283 21.9434 19.7169C21.9434 19.5054 22.0074 19.3399 22.1358 19.219C22.2637 19.0985 22.4261 19.0119 22.6223 18.9588C22.8182 18.9061 23.0257 18.8761 23.2446 18.8683C23.4631 18.8609 23.6555 18.857 23.8216 18.857C24.3796 18.857 24.9906 18.9589 25.6547 19.1625C26.3184 19.3661 27.0351 19.7095 27.8045 20.1921C27.9251 20.2827 28.0608 20.3131 28.2118 20.2827C28.3625 20.2526 28.4834 20.1773 28.5739 20.0564L30.339 17.5445C30.4296 17.4239 30.467 17.2881 30.4521 17.1371C30.4369 16.9865 30.369 16.8656 30.2485 16.7751C29.0866 15.8399 27.8572 15.2062 26.5598 14.8742C26.4088 14.8441 26.2805 14.7649 26.1752 14.6366C26.0694 14.5085 26.0168 14.3689 26.0168 14.2179V13.6069C26.0168 13.4562 25.9637 13.3279 25.8584 13.2222C25.7527 13.1168 25.6243 13.0638 25.4737 13.0638H22.1245C21.9735 13.0638 21.8452 13.1168 21.7398 13.2222C21.6341 13.3279 21.5815 13.4562 21.5815 13.6069V14.3084C21.5815 14.4594 21.5323 14.5991 21.4344 14.727C21.336 14.8554 21.2116 14.942 21.0609 14.9873C20.5631 15.1535 20.0992 15.3646 19.6692 15.6209C19.2393 15.8776 18.8581 16.2058 18.5264 16.6053C18.1945 17.0052 17.9342 17.473 17.7457 18.0084C17.5568 18.5441 17.4628 19.159 17.4628 19.8527C17.4628 20.562 17.5721 21.1766 17.791 21.6971C18.0094 22.2176 18.3001 22.6666 18.6622 23.0435C19.0243 23.4208 19.4351 23.7302 19.8955 23.9713C20.3556 24.2128 20.8195 24.4126 21.2873 24.571C21.7548 24.7294 22.2112 24.8504 22.6564 24.9331C23.1012 25.0162 23.4898 25.088 23.8218 25.1481C24.1687 25.2238 24.5081 25.2839 24.8401 25.3292C25.1719 25.3744 25.4625 25.4349 25.7114 25.5102C25.9603 25.5859 26.1601 25.6799 26.3111 25.7931C26.4618 25.9062 26.5374 26.0611 26.5374 26.257C26.5374 26.6343 26.3638 26.9172 26.0169 27.1056C25.6697 27.2944 25.1644 27.3884 24.5007 27.3884C23.8067 27.3884 23.0599 27.2378 22.2604 26.9358C21.4606 26.6343 20.6537 26.2195 19.839 25.6912C19.7181 25.6159 19.5824 25.5933 19.4317 25.6233C19.2807 25.6537 19.1601 25.7291 19.0696 25.8497L17.3271 28.3615C17.2366 28.4825 17.1987 28.6218 17.214 28.7802C17.2288 28.9386 17.2967 29.0708 17.4176 29.1762C17.9155 29.5836 18.466 29.9608 19.0696 30.3077C19.6728 30.6549 20.3369 30.9339 21.061 31.145C21.2116 31.1902 21.3361 31.2808 21.4344 31.4165C21.5323 31.5523 21.5815 31.6955 21.5815 31.8465V32.7743C21.5815 32.925 21.6342 33.0533 21.7399 33.159C21.8453 33.2644 21.9736 33.3174 22.1246 33.3174H25.4738C25.6244 33.3174 25.7528 33.2644 25.8584 33.159C25.9638 33.0532 26.0168 32.9249 26.0168 32.7743V32.1181C26.0168 31.9671 26.0695 31.8313 26.1752 31.7107C26.2806 31.5898 26.409 31.5145 26.5599 31.4844C27.9176 31.2432 29 30.715 29.8073 29.9004C30.6141 29.0857 31.0179 27.9393 31.0179 26.4607C31.0179 25.4954 30.8256 24.692 30.4409 24.0505C30.0562 23.4094 29.581 22.889 29.0152 22.4891H29.0152Z" stroke="#365094" stroke-width="2"/>
</svg>
