<svg width="50" height="50" viewBox="0 0 50 50" fill="none" xmlns="http://www.w3.org/2000/svg">
<path d="M4.75694 5.10397H11.6663V1L1 1.00003V11.3656H4.75694V5.10397Z" stroke="#365094" stroke-width="2" stroke-miterlimit="10"/>
<path d="M44.6583 43.7158H37.749V48.4226H48.4153V37.4523H44.6583V43.7158Z" stroke="#365094" stroke-width="2" stroke-miterlimit="10"/>
<path d="M37.749 1V5.10397H44.6583V11.3656H48.4152V1H37.749Z" stroke="#365094" stroke-width="2" stroke-miterlimit="10"/>
<path d="M4.75697 37.4523L1 37.4524V48.4226H11.6663V43.7158H4.75697V37.4523Z" stroke="#365094" stroke-width="2" stroke-miterlimit="10"/>
<path d="M42.9609 32.1229C43.9944 29.679 44.5184 27.084 44.5184 24.4099C44.5184 21.7358 43.9944 19.1407 42.9609 16.6969C41.963 14.3373 40.5348 12.2185 38.716 10.3994C36.8971 8.58025 34.7787 7.15182 32.4194 6.1538C29.976 5.12014 27.3814 4.59605 24.7077 4.59605C22.0339 4.59605 19.4393 5.12017 16.9959 6.1538C14.6366 7.15182 12.5182 8.58025 10.6993 10.3994C8.88049 12.2185 7.45228 14.3373 6.45442 16.6969C5.42091 19.1407 4.89691 21.7358 4.89691 24.4099C4.89691 27.084 5.42094 29.679 6.45442 32.1228C7.45228 34.4825 8.88049 36.6013 10.6993 38.4204C12.5182 40.2395 14.6367 41.6679 16.9959 42.666C19.4393 43.6996 22.034 44.2237 24.7077 44.2237C27.3814 44.2237 29.976 43.6996 32.4194 42.666C34.7787 41.6679 36.8971 40.2395 38.716 38.4204C40.5349 36.6013 41.9631 34.4825 42.961 32.1228L42.9609 32.1229ZM24.5775 38.9933L21.6663 36.0816L24.5775 33.1699L27.4887 36.0816L24.5775 38.9933ZM24.7358 40.8764L29.5298 36.0816L24.5775 31.1286L19.6253 36.0816L24.4166 40.8737C15.5689 40.7195 8.40063 33.5501 8.24641 24.7011L13.0423 29.4977L17.9946 24.5446L13.0423 19.5916L8.24367 24.3909C8.25397 15.3263 15.6254 7.95373 24.6886 7.94343L19.8946 12.7382H29.7807L24.9893 7.94598C33.8445 8.09533 41.0197 15.2717 41.169 24.1282L36.3729 19.3313L35.3523 20.352L39.2841 24.2844L35.3523 28.2168L36.3729 29.2375L41.1715 24.4381C41.1562 33.4955 33.7918 40.8611 24.7358 40.8764H24.7358Z" stroke="#365094" stroke-width="2" stroke-miterlimit="10"/>
<path d="M30.6449 13.5932L25.6926 18.5462L30.6449 23.4993L35.5972 18.5462L30.6449 13.5932Z" stroke="#365094" stroke-width="2" stroke-miterlimit="10"/>
<path d="M24.7426 19.4964L19.7903 24.4495L24.7426 29.4025L29.6949 24.4495L24.7426 19.4964ZM24.7076 27.3261L21.7964 24.4145L24.7076 21.5028L27.6188 24.4145L24.7076 27.3261Z" stroke="#365094" stroke-width="2" stroke-miterlimit="10"/>
<path d="M18.8449 35.3012V25.395L13.8926 30.3481L18.8449 35.3012Z" stroke="#365094" stroke-width="2" stroke-miterlimit="10"/>
<path d="M24.7076 23.3693L23.6626 24.4145L24.7076 25.4597L25.7526 24.4145L24.7076 23.3693Z" stroke="#365094" stroke-width="2" stroke-miterlimit="10"/>
<path d="M25.5229 30.183L30.4752 35.136L35.4275 30.183L30.4752 25.2299L25.5229 30.183ZM30.3522 29.2386L29.3072 28.1935L30.3522 27.1483L31.3972 28.1935L30.3522 29.2386Z" stroke="#365094" stroke-width="2" stroke-miterlimit="10"/>
<path d="M18.94 13.6929L13.9877 18.646L14.8115 19.4699L15.634 18.6473L15.6353 18.646L16.4565 17.8247L16.4579 17.8233L17.279 17.002L17.2804 17.0007L18.1016 16.1794L18.1029 16.1781L18.9254 15.3554L19.7492 16.1794L19.7417 16.1869L20.5655 17.0109H20.5656L21.3894 17.8349L22.2132 18.6588L21.3894 19.4828L20.5656 20.3068L20.0605 20.8119L19.7417 21.1307L19.7399 21.1326L19.428 21.4445L18.916 21.9566L18.0922 21.1326L17.2683 20.3086L18.0922 19.4846L18.916 20.3086L18.9178 20.3068L19.2367 19.9879L19.7417 19.4828L20.5656 18.6588L19.7417 17.8349H19.7417L18.9178 17.0109L18.1042 17.8247L18.1029 17.826L17.2817 18.6473L17.2804 18.6486L16.4592 19.4699L16.4579 19.4713L15.6353 20.2939L18.94 23.599L23.8923 18.646L18.94 13.6929Z" stroke="#365094" stroke-width="2" stroke-miterlimit="10"/>
</svg>
