<svg width="49" height="48" viewBox="0 0 49 48" fill="none" xmlns="http://www.w3.org/2000/svg">
<path d="M24.423 28.0085C26.786 28.0085 28.7016 26.0928 28.7016 23.7298C28.7016 21.3667 26.786 19.4511 24.423 19.4511C22.0599 19.4511 20.1443 21.3667 20.1443 23.7298C20.1443 26.0928 22.0599 28.0085 24.423 28.0085Z" stroke="#365094" stroke-width="2" stroke-miterlimit="10"/>
<path d="M45.5545 26.7553C47.2255 25.0843 47.2255 22.3752 45.5545 20.7043C43.8836 19.0334 41.1745 19.0334 39.5036 20.7043C37.8326 22.3752 37.8326 25.0843 39.5036 26.7553C41.1745 28.4262 43.8836 28.4262 45.5545 26.7553Z" stroke="#365094" stroke-width="2" stroke-miterlimit="10"/>
<path d="M5.27868 28.0085C7.64173 28.0085 9.55735 26.0928 9.55735 23.7298C9.55735 21.3667 7.64173 19.4511 5.27868 19.4511C2.91563 19.4511 1 21.3667 1 23.7298C1 26.0928 2.91563 28.0085 5.27868 28.0085Z" stroke="#365094" stroke-width="2" stroke-miterlimit="10"/>
<path d="M24.423 9.55735C26.786 9.55735 28.7016 7.64173 28.7016 5.27868C28.7016 2.91563 26.786 1 24.423 1C22.0599 1 20.1443 2.91563 20.1443 5.27868C20.1443 7.64173 22.0599 9.55735 24.423 9.55735Z" stroke="#365094" stroke-width="2" stroke-miterlimit="10"/>
<path d="M11.3761 13.4017C12.8776 13.4017 14.0949 12.1844 14.0949 10.6829C14.0949 9.1813 12.8776 7.96404 11.3761 7.96404C9.87449 7.96404 8.65723 9.1813 8.65723 10.6829C8.65723 12.1844 9.87449 13.4017 11.3761 13.4017Z" stroke="#365094" stroke-width="2" stroke-miterlimit="10"/>
<path d="M37.4699 39.4955C38.9715 39.4955 40.1888 38.2783 40.1888 36.7767C40.1888 35.2751 38.9715 34.0579 37.4699 34.0579C35.9684 34.0579 34.7511 35.2751 34.7511 36.7767C34.7511 38.2783 35.9684 39.4955 37.4699 39.4955Z" stroke="#365094" stroke-width="2" stroke-miterlimit="10"/>
<path d="M17.3638 19.1888C18.7546 19.1888 19.882 18.0614 19.882 16.6706C19.882 15.2799 18.7546 14.1524 17.3638 14.1524C15.9731 14.1524 14.8456 15.2799 14.8456 16.6706C14.8456 18.0614 15.9731 19.1888 17.3638 19.1888Z" stroke="#365094" stroke-width="2" stroke-miterlimit="10"/>
<path d="M31.4822 33.3072C32.873 33.3072 34.0004 32.1798 34.0004 30.789C34.0004 29.3983 32.873 28.2709 31.4822 28.2709C30.0915 28.2709 28.9641 29.3983 28.9641 30.789C28.9641 32.1798 30.0915 33.3072 31.4822 33.3072Z" stroke="#365094" stroke-width="2" stroke-miterlimit="10"/>
<path d="M24.423 46.4596C26.786 46.4596 28.7016 44.544 28.7016 42.181C28.7016 39.8179 26.786 37.9023 24.423 37.9023C22.0599 37.9023 20.1443 39.8179 20.1443 42.181C20.1443 44.544 22.0599 46.4596 24.423 46.4596Z" stroke="#365094" stroke-width="2" stroke-miterlimit="10"/>
<path d="M17.3638 33.3072C18.7546 33.3072 19.882 32.1798 19.882 30.789C19.882 29.3983 18.7546 28.2709 17.3638 28.2709C15.9731 28.2709 14.8456 29.3983 14.8456 30.789C14.8456 32.1798 15.9731 33.3072 17.3638 33.3072Z" stroke="#365094" stroke-width="2" stroke-miterlimit="10"/>
<path d="M31.4822 19.1888C32.873 19.1888 34.0004 18.0614 34.0004 16.6706C34.0004 15.2799 32.873 14.1524 31.4822 14.1524C30.0915 14.1524 28.9641 15.2799 28.9641 16.6706C28.9641 18.0614 30.0915 19.1888 31.4822 19.1888Z" stroke="#365094" stroke-width="2" stroke-miterlimit="10"/>
<path d="M11.3761 39.4955C12.8776 39.4955 14.0949 38.2783 14.0949 36.7767C14.0949 35.2751 12.8776 34.0579 11.3761 34.0579C9.87449 34.0579 8.65723 35.2751 8.65723 36.7767C8.65723 38.2783 9.87449 39.4955 11.3761 39.4955Z" stroke="#365094" stroke-width="2" stroke-miterlimit="10"/>
<path d="M37.4699 13.4017C38.9715 13.4017 40.1888 12.1844 40.1888 10.6829C40.1888 9.1813 38.9715 7.96404 37.4699 7.96404C35.9684 7.96404 34.7511 9.1813 34.7511 10.6829C34.7511 12.1844 35.9684 13.4017 37.4699 13.4017Z" stroke="#365094" stroke-width="2" stroke-miterlimit="10"/>
</svg>
