<svg width="48" height="48" viewBox="0 0 48 48" fill="none" xmlns="http://www.w3.org/2000/svg">
<path d="M26.8927 42.807C29.9874 42.3349 32.8361 41.1163 35.2513 39.3421L37.3822 41.473C37.8438 41.9346 38.5923 41.9346 39.0539 41.473L41.4731 39.0539C41.9347 38.5922 41.9347 37.8438 41.4731 37.3822L39.3422 35.2513C41.1164 32.8361 42.335 29.9873 42.807 26.8927H45.8179C46.4708 26.8927 47 26.3634 47 25.7106V22.2894C47 21.6366 46.4708 21.1073 45.8179 21.1073H42.807C42.3349 18.0126 41.1163 15.1639 39.3422 12.7487L41.4731 10.6178C41.9347 10.1562 41.9347 9.40775 41.4731 8.94614L39.0539 6.52699C38.5923 6.06538 37.8438 6.06538 37.3822 6.52699L35.2513 8.65788C32.8361 6.88366 29.9874 5.66506 26.8927 5.19298V2.18206C26.8927 1.52922 26.3634 1 25.7106 1H22.2894C21.6366 1 21.1073 1.52922 21.1073 2.18206V5.19298C18.0126 5.66506 15.1639 6.88366 12.7487 8.65788L10.6178 6.52699C10.1562 6.06538 9.40772 6.06538 8.9461 6.52699L6.52695 8.94614C6.06533 9.40775 6.06533 10.1562 6.52695 10.6178L8.65785 12.7487C6.88362 15.1639 5.66502 18.0126 5.19299 21.1073H2.18206C1.52922 21.1073 1 21.6366 1 22.2894V25.7106C1 26.3634 1.52922 26.8927 2.18206 26.8927H5.19299C5.66507 29.9873 6.88367 32.8361 8.65785 35.2513L6.52695 37.3822C6.06533 37.8438 6.06533 38.5922 6.52695 39.0539L8.9461 41.473C9.40772 41.9346 10.1562 41.9346 10.6178 41.473L12.7487 39.3421C15.1639 41.1163 18.0126 42.3349 21.1073 42.807V45.8179C21.1073 46.4708 21.6366 47 22.2894 47H25.7106C26.3634 47 26.8927 46.4708 26.8927 45.8179V42.807ZM10.7196 27.1225C8.51238 17.178 17.1779 8.51253 27.1224 10.7197C32.1831 11.8429 36.1573 15.817 37.2805 20.8778C39.4877 30.8222 30.8222 39.4877 20.8777 37.2805C15.817 36.1573 11.8428 32.1832 10.7196 27.1225Z" stroke="#365094" stroke-width="2" stroke-miterlimit="10"/>
</svg>
