<svg width="202" height="202" viewBox="0 0 202 202" fill="none" xmlns="http://www.w3.org/2000/svg">
<path d="M16.7989 18.2583H45.8546V1L1 1.00014V44.5902H16.7989V18.2583Z" stroke="#365094" stroke-width="2" stroke-miterlimit="10"/>
<path d="M184.595 180.632H155.539V200.425H200.394V154.292H184.595V180.632Z" stroke="#365094" stroke-width="2" stroke-miterlimit="10"/>
<path d="M155.539 1V18.2583H184.595V44.5902H200.394V1H155.539Z" stroke="#365094" stroke-width="2" stroke-miterlimit="10"/>
<path d="M16.7991 154.292L1 154.292V200.425H45.8546V180.632H16.7991V154.292Z" stroke="#365094" stroke-width="2" stroke-miterlimit="10"/>
<path d="M177.457 131.88C181.803 121.603 184.007 110.69 184.007 99.4448C184.007 88.1994 181.803 77.2866 177.457 67.0097C173.26 57.0869 167.254 48.1767 159.606 40.5268C151.957 32.8769 143.048 26.87 133.127 22.6731C122.852 18.3262 111.941 16.1223 100.697 16.1223C89.4533 16.1223 78.5423 18.3264 68.267 22.6731C58.3457 26.87 49.4369 32.8769 41.7882 40.5268C34.1395 48.1769 28.1335 57.087 23.9372 67.0097C19.591 77.2866 17.3875 88.1994 17.3875 99.4448C17.3875 110.69 19.5912 121.603 23.9372 131.88C28.1335 141.803 34.1395 150.713 41.7882 158.363C49.437 166.013 58.3458 172.02 68.267 176.217C78.5423 180.563 89.4534 182.767 100.697 182.767C111.941 182.767 122.852 180.563 133.127 176.217C143.048 172.02 151.957 166.013 159.606 158.363C167.255 150.713 173.261 141.803 177.457 131.88L177.457 131.88ZM100.15 160.772L87.9074 148.528L100.15 136.283L112.392 148.528L100.15 160.772ZM100.815 168.691L120.976 148.528L100.15 127.699L79.3241 148.528L99.473 168.68C62.2659 168.031 32.1216 137.882 31.473 100.669L51.641 120.84L72.4667 100.011L51.641 79.1825L31.4615 99.3652C31.5048 61.2457 62.5035 30.2423 100.617 30.199L80.457 50.3621H122.031L101.881 30.2096C139.12 30.8377 169.294 61.0162 169.922 98.2604L149.752 78.0882L145.461 82.3805L161.995 98.9171L145.461 115.454L149.752 119.746L169.932 99.5634C169.868 137.652 138.898 168.627 100.815 168.691H100.815Z" stroke="#365094" stroke-width="2" stroke-miterlimit="10"/>
<path d="M125.665 53.9577L104.839 74.7866L125.665 95.6156L146.491 74.7866L125.665 53.9577Z" stroke="#365094" stroke-width="2" stroke-miterlimit="10"/>
<path d="M100.844 78.7823L80.0183 99.6113L100.844 120.44L121.67 99.6113L100.844 78.7823ZM100.697 111.708L88.4544 99.4641L100.697 87.2198L112.939 99.4641L100.697 111.708Z" stroke="#365094" stroke-width="2" stroke-miterlimit="10"/>
<path d="M76.0426 145.246V103.588L55.2169 124.417L76.0426 145.246Z" stroke="#365094" stroke-width="2" stroke-miterlimit="10"/>
<path d="M100.697 95.0691L96.3022 99.4644L100.697 103.86L105.091 99.4644L100.697 95.0691Z" stroke="#365094" stroke-width="2" stroke-miterlimit="10"/>
<path d="M104.126 123.722L124.951 144.551L145.777 123.722L124.951 102.893L104.126 123.722ZM124.434 119.751L120.039 115.356L124.434 110.961L128.828 115.356L124.434 119.751Z" stroke="#365094" stroke-width="2" stroke-miterlimit="10"/>
<path d="M76.4424 54.3771L55.6167 75.2061L59.0812 78.6711L62.54 75.2117L62.5457 75.2061L65.9989 71.7523L66.0045 71.7467L69.4577 68.2929L69.4634 68.2873L72.9167 64.8335L72.9223 64.8279L76.3812 61.3684L79.8457 64.8335L79.814 64.8652L83.2783 68.3302H83.2785L86.743 71.7952L90.2074 75.2602L86.743 78.7252L83.2785 82.1902L81.1548 84.3142L79.814 85.6552L79.8062 85.663L78.4949 86.9745L76.3417 89.128L72.8773 85.6629L69.4128 82.1979L72.8773 78.7329L76.3417 82.1979L76.3494 82.1902L77.6902 80.8492L79.814 78.7252L83.2785 75.2602L79.814 71.7952H79.8139L76.3494 68.3302L72.9278 71.7523L72.9222 71.7579L69.469 75.2117L69.4634 75.2173L66.0101 78.6711L66.0045 78.6767L62.5457 82.1361L76.4426 96.035L97.2683 75.2061L76.4424 54.3771Z" stroke="#365094" stroke-width="2" stroke-miterlimit="10"/>
</svg>
