<svg width="45" height="45" viewBox="0 0 45 45" fill="none" xmlns="http://www.w3.org/2000/svg">
<path d="M3.56226 3.88978H10.1136V0L0 3.11002e-05V9.82462H3.56226V3.88978Z" fill="#B5E0F3"/>
<path d="M41.396 40.4864H34.8447V44.9476H44.9583V34.5499H41.396V40.4864Z" fill="#B5E0F3"/>
<path d="M34.8447 0V3.88978H41.396V9.82462H44.9582V0H34.8447Z" fill="#B5E0F3"/>
<path d="M3.56229 34.5499L0 34.5499V44.9476H10.1136V40.4864H3.56229V34.5499Z" fill="#B5E0F3"/>
<path d="M39.7865 29.4985C40.7665 27.1822 41.2633 24.7226 41.2633 22.188C41.2633 19.6535 40.7665 17.1939 39.7865 14.8776C38.8403 12.6412 37.4861 10.6329 35.7616 8.90876C34.037 7.18458 32.0283 5.8307 29.7913 4.88477C27.4744 3.90505 25.0143 3.40833 22.4791 3.40833C19.9439 3.40833 17.4838 3.90509 15.167 4.88477C12.93 5.8307 10.9213 7.18458 9.19669 8.90876C7.4721 10.633 6.1179 12.6412 5.17174 14.8776C4.19179 17.1939 3.69495 19.6535 3.69495 22.188C3.69495 24.7226 4.19182 27.1822 5.17174 29.4984C6.1179 31.7349 7.4721 33.7431 9.19669 35.4673C10.9213 37.1915 12.93 38.5454 15.167 39.4913C17.4838 40.4711 19.944 40.9678 22.4791 40.9678C25.0143 40.9678 27.4744 40.4711 29.7913 39.4913C32.0283 38.5454 34.037 37.1915 35.7616 35.4673C37.4862 33.7431 38.8404 31.7349 39.7866 29.4984L39.7865 29.4985ZM22.3557 36.0103L19.5954 33.2506L22.3557 30.4909L25.1161 33.2506L22.3557 36.0103ZM22.5058 37.7951L27.0514 33.2506L22.3557 28.5561L17.6601 33.2506L22.2031 37.7926C13.8139 37.6464 7.01711 30.8512 6.87088 22.464L11.4182 27.0103L16.1139 22.3158L11.4182 17.6212L6.86828 22.1701C6.87805 13.5785 13.8675 6.59076 22.4611 6.581L17.9155 11.1255H27.2893L22.7462 6.58341C31.1425 6.72497 37.9459 13.5268 38.0875 21.9211L33.5399 17.3746L32.5722 18.342L36.3002 22.0691L32.5722 25.7962L33.5399 26.7637L38.0898 22.2148C38.0753 30.7995 31.0925 37.7807 22.5058 37.7951H22.5058Z" fill="#B5E0F3"/>
<path d="M28.1088 11.9359L23.4131 16.6305L28.1088 21.325L32.8044 16.6305L28.1088 11.9359Z" fill="#B5E0F3"/>
<path d="M22.5123 17.531L17.8166 22.2256L22.5123 26.9201L27.2079 22.2256L22.5123 17.531ZM22.4791 24.9521L19.7187 22.1924L22.4791 19.4327L25.2394 22.1924L22.4791 24.9521Z" fill="#B5E0F3"/>
<path d="M16.9202 32.511V23.1219L12.2245 27.8165L16.9202 32.511Z" fill="#B5E0F3"/>
<path d="M22.4792 21.2019L21.4883 22.1925L22.4792 23.1831L23.47 22.1925L22.4792 21.2019Z" fill="#B5E0F3"/>
<path d="M23.2522 27.6599L27.9479 32.3545L32.6435 27.6599L27.9479 22.9654L23.2522 27.6599ZM27.8312 26.7649L26.8403 25.7743L27.8312 24.7836L28.822 25.7743L27.8312 26.7649Z" fill="#B5E0F3"/>
<path d="M17.0103 12.0305L12.3146 16.725L13.0958 17.506L13.8757 16.7263L13.8769 16.725L14.6555 15.9466L14.6568 15.9453L15.4354 15.1669L15.4367 15.1656L16.2153 14.3872L16.2166 14.3859L16.9965 13.6062L17.7776 14.3872L17.7705 14.3943L18.5516 15.1753H18.5517L19.3328 15.9562L20.114 16.7372L19.3328 17.5182L18.5517 18.2991L18.0728 18.7779L17.7705 19.0801L17.7687 19.0819L17.4731 19.3775L16.9876 19.8628L16.2064 19.0818L15.4253 18.3009L16.2064 17.5199L16.9876 18.3009L16.9893 18.2991L17.2916 17.9969L17.7705 17.5182L18.5517 16.7372L17.7705 15.9562H17.7705L16.9893 15.1753L16.2178 15.9466L16.2166 15.9478L15.438 16.7263L15.4367 16.7275L14.6581 17.506L14.6568 17.5072L13.8769 18.2869L17.0103 21.4196L21.706 16.725L17.0103 12.0305Z" fill="#B5E0F3"/>
</svg>
